#Comment line ignore any data following # character 
#Hierarchical Translation and Rotation (.htr) file 
[Header]	
#Header keywords are followed by a single value 
FileType HTR		#Single word string
DataType HTRS		#Translation followed by rotation and scale data
FileVersion 1		#integer
NumSegments 64		#integer
NumFrames 3		#integer
DataFrameRate 30		#integer, data frame rate in this file
EulerRotationOrder ZYX
CalibrationUnits mm
RotationUnits Degrees
GlobalAxisofGravity Y
BoneLengthAxis Y
ScaleFactor 1.00
[SegmentNames&Hierarchy]
#CHILD	PARENT
Pinger_Root GLOBAL
Pelvis Pinger_Root
L_Hip Pelvis
R_Hip Pelvis
Rear_Leg01 Pelvis
Spine1 Pelvis
L_Leg01 L_Hip
L_Leg02 L_Leg01
L_Leg03 L_Leg02
L_Foot L_Leg03
L_Toe1_01 L_Foot
L_Toe2_01 L_Foot
L_Toe3_01 L_Foot
planeAlignerLeft L_Foot
L_Toe1_02 L_Toe1_01
L_Toe1_03 L_Toe1_02
L_Toe2_02 L_Toe2_01
L_Toe2_03 L_Toe2_02
L_Toe3_02 L_Toe3_01
L_Toe3_03 L_Toe3_02
planeLockWeightLeft planeAlignerLeft
R_Leg01 R_Hip
R_Leg02 R_Leg01
R_Leg03 R_Leg02
R_Foot R_Leg03
planeAlignerRight R_Foot
R_Toe1_01 R_Foot
R_Toe2_01 R_Foot
R_Toe3_01 R_Foot
planeLockWeightRight planeAlignerRight
R_Toe1_02 R_Toe1_01
R_Toe1_03 R_Toe1_02
R_Toe2_02 R_Toe2_01
R_Toe2_03 R_Toe2_02
R_Toe3_02 R_Toe3_01
R_Toe3_03 R_Toe3_02
Rear_Leg02 Rear_Leg01
Rear_Leg03 Rear_Leg02
Rear_Leg04 Rear_Leg03
Rear_Foot Rear_Leg04
planeAlignerCenter Rear_Foot
Rear_Toe1_01 Rear_Foot
Rear_Toe2_01 Rear_Foot
Rear_Toe3_01 Rear_Foot
planeLockWeightCenter planeAlignerCenter
Rear_Toe1_02 Rear_Toe1_01
Rear_Toe1_03 Rear_Toe1_02
Rear_Toe2_02 Rear_Toe2_01
Rear_Toe2_03 Rear_Toe2_02
Rear_Toe3_02 Rear_Toe3_01
Rear_Toe3_03 Rear_Toe3_02
Back_Bone Spine1
Head Spine1
Motor_Bone Back_Bone
Ping_Mechanism Back_Bone
BN_LookIK Head
bottomMouth Head
L_Mouth01 Head
L_mouthFront Head
mouthGun Head
R_Mouth01 Head
R_mouthFront Head
TopMouth Head
weapon_bone Head
[BasePosition]
#SegmentName Tx, Ty, Tz, Rx, Ry, Rz, BoneLength
Pinger_Root 0.000000 0.000000 0.000000 -90.000000 0.000000 0.000000 10.000000 
Pelvis 0.000000 0.000000 0.000000 0.000000 0.000000 0.000000 10.000000 
L_Hip 0.000000 0.000000 0.000000 0.000000 0.000000 0.000000 10.000000 
R_Hip 0.000000 0.000000 0.000000 0.000000 0.000000 0.000000 10.000000 
Rear_Leg01 0.000000 0.000000 0.000000 0.000000 0.000000 0.000000 10.000000 
Spine1 0.000000 0.000000 0.000000 0.000000 0.000000 0.000000 10.000000 
L_Leg01 0.000000 0.000000 0.000000 0.000000 0.000000 0.000000 10.000000 
L_Leg02 0.000000 0.000000 0.000000 0.000000 0.000000 0.000000 10.000000 
L_Leg03 0.000000 0.000000 0.000000 0.000000 0.000000 0.000000 10.000000 
L_Foot 0.000000 0.000000 0.000000 0.000000 0.000000 0.000000 10.000000 
L_Toe1_01 0.000000 0.000000 0.000000 0.000000 0.000000 0.000000 10.000000 
L_Toe2_01 0.000000 0.000000 0.000000 0.000000 0.000000 0.000000 10.000000 
L_Toe3_01 0.000000 0.000000 0.000000 0.000000 0.000000 0.000000 10.000000 
planeAlignerLeft 0.000000 0.000000 0.000000 0.000000 0.000000 0.000000 10.000000 
L_Toe1_02 0.000000 0.000000 0.000000 0.000000 0.000000 0.000000 10.000000 
L_Toe1_03 0.000000 0.000000 0.000000 0.000000 0.000000 0.000000 10.000000 
L_Toe2_02 0.000000 0.000000 0.000000 0.000000 0.000000 0.000000 10.000000 
L_Toe2_03 0.000000 0.000000 0.000000 0.000000 0.000000 0.000000 10.000000 
L_Toe3_02 0.000000 0.000000 0.000000 0.000000 0.000000 0.000000 10.000000 
L_Toe3_03 0.000000 0.000000 0.000000 0.000000 0.000000 0.000000 10.000000 
planeLockWeightLeft 0.000000 0.000000 0.000000 0.000000 0.000000 0.000000 10.000000 
R_Leg01 0.000000 0.000000 0.000000 0.000000 0.000000 0.000000 10.000000 
R_Leg02 0.000000 0.000000 0.000000 0.000000 0.000000 0.000000 10.000000 
R_Leg03 0.000000 0.000000 0.000000 0.000000 0.000000 0.000000 10.000000 
R_Foot 0.000000 0.000000 0.000000 0.000000 0.000000 0.000000 10.000000 
planeAlignerRight 0.000000 0.000000 0.000000 0.000000 0.000000 0.000000 10.000000 
R_Toe1_01 0.000000 0.000000 0.000000 0.000000 0.000000 0.000000 10.000000 
R_Toe2_01 0.000000 0.000000 0.000000 0.000000 0.000000 0.000000 10.000000 
R_Toe3_01 0.000000 0.000000 0.000000 0.000000 0.000000 0.000000 10.000000 
planeLockWeightRight 0.000000 0.000000 0.000000 0.000000 0.000000 0.000000 10.000000 
R_Toe1_02 0.000000 0.000000 0.000000 0.000000 0.000000 0.000000 10.000000 
R_Toe1_03 0.000000 0.000000 0.000000 0.000000 0.000000 0.000000 10.000000 
R_Toe2_02 0.000000 0.000000 0.000000 0.000000 0.000000 0.000000 10.000000 
R_Toe2_03 0.000000 0.000000 0.000000 0.000000 0.000000 0.000000 10.000000 
R_Toe3_02 0.000000 0.000000 0.000000 0.000000 0.000000 0.000000 10.000000 
R_Toe3_03 0.000000 0.000000 0.000000 0.000000 0.000000 0.000000 10.000000 
Rear_Leg02 0.000000 0.000000 0.000000 0.000000 0.000000 0.000000 10.000000 
Rear_Leg03 0.000000 0.000000 0.000000 0.000000 0.000000 0.000000 10.000000 
Rear_Leg04 0.000000 0.000000 0.000000 0.000000 0.000000 0.000000 10.000000 
Rear_Foot 0.000000 0.000000 0.000000 0.000000 0.000000 0.000000 10.000000 
planeAlignerCenter 0.000000 0.000000 0.000000 0.000000 0.000000 0.000000 10.000000 
Rear_Toe1_01 0.000000 0.000000 0.000000 0.000000 0.000000 0.000000 10.000000 
Rear_Toe2_01 0.000000 0.000000 0.000000 0.000000 0.000000 0.000000 10.000000 
Rear_Toe3_01 0.000000 0.000000 0.000000 0.000000 0.000000 0.000000 10.000000 
planeLockWeightCenter 0.000000 0.000000 0.000000 0.000000 0.000000 0.000000 10.000000 
Rear_Toe1_02 0.000000 0.000000 0.000000 0.000000 0.000000 0.000000 10.000000 
Rear_Toe1_03 0.000000 0.000000 0.000000 0.000000 0.000000 0.000000 10.000000 
Rear_Toe2_02 0.000000 0.000000 0.000000 0.000000 0.000000 0.000000 10.000000 
Rear_Toe2_03 0.000000 0.000000 0.000000 0.000000 0.000000 0.000000 10.000000 
Rear_Toe3_02 0.000000 0.000000 0.000000 0.000000 0.000000 0.000000 10.000000 
Rear_Toe3_03 0.000000 0.000000 0.000000 0.000000 0.000000 0.000000 10.000000 
Back_Bone 0.000000 0.000000 0.000000 0.000000 0.000000 0.000000 10.000000 
Head 0.000000 0.000000 0.000000 0.000000 0.000000 0.000000 10.000000 
Motor_Bone 0.000000 0.000000 0.000000 0.000000 0.000000 0.000000 10.000000 
Ping_Mechanism 0.000000 0.000000 0.000000 0.000000 0.000000 0.000000 10.000000 
BN_LookIK 0.000000 0.000000 0.000000 0.000000 0.000000 0.000000 10.000000 
bottomMouth 0.000000 0.000000 0.000000 0.000000 0.000000 0.000000 10.000000 
L_Mouth01 0.000000 0.000000 0.000000 0.000000 0.000000 0.000000 10.000000 
L_mouthFront 0.000000 0.000000 0.000000 0.000000 0.000000 0.000000 10.000000 
mouthGun 0.000000 0.000000 0.000000 0.000000 0.000000 0.000000 10.000000 
R_Mouth01 0.000000 0.000000 0.000000 0.000000 0.000000 0.000000 10.000000 
R_mouthFront 0.000000 0.000000 0.000000 0.000000 0.000000 0.000000 10.000000 
TopMouth 0.000000 0.000000 0.000000 0.000000 0.000000 0.000000 10.000000 
weapon_bone 0.000000 0.000000 0.000000 0.000000 0.000000 0.000000 10.000000 
#Beginning of Data. Separated by tabs
#Fr	Tx	Ty	Tz	Rx	Ry	Rz	SF
[Pinger_Root]
11 -0.000007 860.058411 0.000000 -0.000075 -0.000000 -0.000020 860.058411
12 -0.000008 955.043884 0.000000 -0.000075 -0.000000 -0.000020 955.043884
13 -0.000008 1050.029297 0.000000 -0.000075 -0.000000 -0.000020 1050.029297
[Pelvis]
11 -325.226746 1061.225464 4928.584473 65.696297 -77.238075 -70.907333 5052.020996
12 -332.974396 1069.805908 4841.924316 53.357327 -77.853531 -57.523361 4969.867676
13 -338.447754 1083.116333 4749.602539 44.134598 -77.267975 -46.982777 4883.278320
[L_Hip]
11 5.766392 125.831482 872.656799 -178.253311 -81.787758 87.381340 881.701050
12 5.766392 125.831482 872.656799 -178.253342 -81.787636 87.381248 881.701050
13 5.766392 125.831482 872.656799 -178.253326 -81.787636 87.381203 881.701050
[R_Hip]
11 5.765438 125.836372 -872.654907 -1.746690 81.787712 87.381248 881.699829
12 5.765438 125.836372 -872.654907 -1.746690 81.787666 87.381248 881.699829
13 5.765438 125.836372 -872.654907 -1.746701 81.787666 87.381203 881.699829
[Rear_Leg01]
11 -192.298416 -925.602966 -0.001907 140.773743 10.160021 -174.670441 945.367432
12 -192.298416 -925.602966 -0.001907 135.296753 4.486954 176.552490 945.367432
13 -192.298416 -925.602966 -0.001907 132.970779 0.246696 171.939713 945.367432
[Spine1]
11 290.604584 5.007505 0.000477 4.712556 -7.412024 43.545475 290.647736
12 290.604584 5.007505 0.000477 2.617398 -8.514410 41.953976 290.647736
13 290.604584 5.007505 0.000477 0.314268 -9.346689 41.059269 290.647736
[L_Leg01]
11 761.932007 -0.002384 -0.069261 70.129509 -6.504005 -81.031471 761.932068
12 761.932007 -0.002384 -0.069261 70.668098 -8.444010 -83.028824 761.932068
13 761.932007 -0.002384 -0.069261 71.440102 -9.737752 -84.814232 761.932068
[L_Leg02]
11 1441.140503 -0.000954 -0.000715 -1.371265 0.648107 -106.713188 1441.140503
12 1441.140503 -0.000954 -0.000715 -1.345758 0.617856 -108.209999 1441.140503
13 1441.140503 -0.000954 -0.000715 -1.278240 0.581011 -110.274658 1441.140503
[L_Leg03]
11 1686.963989 -0.000715 -0.000954 0.052557 -0.011383 95.730721 1686.963989
12 1686.963989 -0.000715 -0.000954 0.050833 -0.009886 96.487679 1686.963989
13 1686.963989 -0.000715 -0.000954 0.047271 -0.010023 97.294769 1686.963989
[L_Foot]
11 3041.570068 -30.715107 11.297464 -10.792806 17.177902 75.334290 3041.746094
12 3041.570068 -30.715107 11.297464 -10.951000 17.087088 76.377472 3041.746094
13 3041.570068 -30.715107 11.297464 -11.110824 16.999035 77.420410 3041.746094
[L_Toe1_01]
11 -188.216690 -224.732346 -21.137953 89.321892 -1.870080 -162.483978 293.899567
12 -188.216690 -224.732346 -21.137953 89.299034 -1.854877 -161.674179 293.899567
13 -188.216690 -224.732346 -21.137953 89.276382 -1.839353 -160.864380 293.899567
[L_Toe2_01]
11 200.746536 -219.926590 148.838394 -77.646248 -13.447836 -44.898636 332.896027
12 200.746536 -219.926590 148.838394 -77.484337 -13.355661 -45.598293 332.896027
13 200.746536 -219.926590 148.838394 -77.323631 -13.261557 -46.297390 332.896027
[L_Toe3_01]
11 188.832520 -219.859131 -191.078659 -106.112877 16.721800 -46.814423 347.140900
12 188.832520 -219.859131 -191.078659 -106.316605 16.598152 -47.525059 347.140900
13 188.832520 -219.859131 -191.078659 -106.518547 16.472092 -48.234753 347.140900
[planeAlignerLeft]
11 -49.467224 -624.823425 0.075989 0.000000 -89.972023 -90.028198 626.778564
12 -52.537621 -633.396179 0.074310 0.000000 -90.000000 -90.030869 635.571350
13 -55.608013 -641.968933 0.072632 0.000000 -89.965736 -90.033516 644.372803
[L_Toe1_02]
11 413.761139 0.000477 0.000000 0.001400 -23.953724 0.001400 413.761139
12 413.761139 0.000477 0.000000 0.001398 -24.174086 0.001398 413.761139
13 413.761139 0.000477 0.000000 0.001396 -24.394444 0.001396 413.761139
[L_Toe1_03]
11 464.317322 0.000358 -0.000089 0.008443 74.016251 0.008443 464.317322
12 464.317322 0.000358 -0.000089 0.007904 72.921776 0.007904 464.317322
13 464.317322 0.000358 -0.000089 0.007278 71.438454 0.007278 464.317322
[L_Toe2_02]
11 342.235809 -0.000477 0.000238 0.001179 -78.754898 0.001179 342.235809
12 342.235809 -0.000477 0.000238 0.001179 -78.594139 0.001179 342.235809
13 342.235809 -0.000477 0.000238 0.001180 -78.433380 0.001180 342.235809
[L_Toe2_03]
11 420.210846 -0.000715 0.000000 -179.998032 72.350967 -179.994492 420.210846
12 420.210846 -0.000715 0.000000 -179.997940 72.737938 -179.994400 420.210846
13 420.210846 -0.000715 0.000000 -179.997849 73.124870 -179.994324 420.210846
[L_Toe3_02]
11 329.270111 0.000954 0.000000 0.001176 -82.140976 0.001176 329.270111
12 329.270111 0.000954 0.000000 0.001176 -82.195259 0.001176 329.270111
13 329.270111 0.000954 0.000000 0.001176 -81.989990 0.001176 329.270111
[L_Toe3_03]
11 439.137451 -0.001907 0.000954 -179.998306 70.887352 -179.994766 439.137451
12 439.137451 -0.001907 0.000954 -179.998306 70.984467 -179.994751 439.137451
13 439.137451 -0.001907 0.000954 -179.998184 71.624863 -179.994629 439.137451
[planeLockWeightLeft]
11 1000.000122 -0.000302 -0.000306 -0.011826 -0.004376 0.005620 1000.000122
12 1000.000122 -0.000310 -0.000299 -0.011826 -0.004376 0.005620 1000.000122
13 1000.000122 -0.000317 -0.000293 -0.011826 -0.004376 0.005620 1000.000122
[R_Leg01]
11 761.455627 -0.001907 -0.000358 82.207741 6.142883 73.390175 761.455688
12 761.455627 -0.001907 -0.000358 79.184212 -21.095636 76.684601 761.455688
13 761.455627 -0.001907 -0.000358 74.713921 -35.425282 80.571838 761.455688
[R_Leg02]
11 1441.140625 0.000000 -0.000238 0.166535 -0.065140 -112.796570 1441.140625
12 1441.140625 0.000000 -0.000238 -0.052501 -0.028504 -135.770386 1441.140625
13 1441.140625 0.000000 -0.000238 -0.216325 0.082425 -147.262924 1441.140625
[R_Leg03]
11 1686.963989 0.000954 0.001431 -0.038925 0.010168 99.242844 1686.963989
12 1686.963989 0.000954 0.001431 -0.089007 0.010915 86.036728 1686.963989
13 1686.963989 0.000954 0.001431 -0.118060 0.009337 78.631355 1686.963989
[R_Foot]
11 3041.560059 -30.531288 -11.204481 23.393457 -27.266193 76.466125 3041.734131
12 3041.560059 -30.531288 -11.204481 27.525522 -28.344593 79.638840 3041.734131
13 3041.560059 -30.531288 -11.204481 31.371578 -29.529100 78.626030 3041.734131
[planeAlignerRight]
11 -210.721283 -730.049866 78.419495 0.000000 -89.951546 -90.024025 763.888550
12 -228.922974 -739.318359 77.081291 0.000000 -89.951546 -90.025940 777.778137
13 -243.433319 -747.368652 74.533676 0.000000 -89.951546 -90.027840 789.540955
[R_Toe1_01]
11 -188.383347 -224.864899 21.052242 91.454475 2.077022 -135.556519 294.101532
12 -188.383347 -224.864899 21.052242 91.564201 2.847944 -131.512604 294.101532
13 -188.383347 -224.864899 21.052242 91.563622 3.084974 -130.684265 294.101532
[R_Toe2_01]
11 200.637817 -220.002121 -148.787384 -103.550522 9.527165 -52.619541 332.857574
12 200.637817 -220.002121 -148.787384 -103.725029 9.621061 -53.389256 332.857574
13 200.637817 -220.002121 -148.787384 -103.900810 9.712633 -54.159405 332.857574
[R_Toe3_01]
11 188.606735 -220.092957 191.126343 -69.261398 -21.773758 -58.346634 347.192566
12 188.606735 -220.092957 191.126343 -69.059036 -21.725657 -59.131866 347.192566
13 188.606735 -220.092957 191.126343 -68.933640 -21.642506 -59.704262 347.192566
[planeLockWeightRight]
11 647.999573 0.000153 -0.000172 -0.011823 -0.004379 -0.000027 647.999573
12 351.999634 0.000153 -0.000114 -0.011823 -0.004379 -0.000027 351.999634
13 103.999428 0.000000 -0.000076 -0.011823 -0.004379 -0.000027 103.999428
[R_Toe1_02]
11 413.762085 0.000477 -0.000119 0.001385 -25.840391 0.001385 413.762085
12 413.762085 0.000477 -0.000119 0.001385 -25.911442 0.001385 413.762085
13 413.762085 0.000477 -0.000119 0.001384 -25.982473 0.001384 413.762085
[R_Toe1_03]
11 464.317810 0.000000 0.001088 0.003800 54.018730 0.003800 464.317810
12 464.317810 0.000000 0.001088 0.003698 52.988567 0.003698 464.317810
13 464.317810 0.000000 0.001088 0.003861 54.607922 0.003861 464.317810
[R_Toe2_02]
11 342.234741 -0.000954 0.000238 -0.002332 -80.029793 -0.002332 342.234741
12 342.234741 -0.000954 0.000238 -0.002332 -80.048012 -0.002332 342.234741
13 342.234741 -0.000954 0.000238 -0.002332 -80.066292 -0.002332 342.234741
[R_Toe2_03]
11 420.210846 0.000715 -0.000268 -179.995789 62.498730 -179.999374 420.210846
12 420.210846 0.000715 -0.000268 -179.995804 62.341427 -179.999390 420.210846
13 420.210846 0.000715 -0.000268 -179.995819 62.184120 -179.999405 420.210846
[R_Toe3_02]
11 329.270355 -0.000477 -0.000954 0.001176 -82.492218 0.001176 329.270355
12 329.270355 -0.000477 -0.000954 0.001176 -82.471184 0.001176 329.270355
13 329.270355 -0.000477 -0.000954 0.001176 -82.530342 0.001176 329.270355
[R_Toe3_03]
11 439.137939 0.000238 0.001431 -179.998566 69.374390 -179.995026 439.137939
12 439.137939 0.000238 0.001431 -179.998596 69.135292 -179.995041 439.137939
13 439.137939 0.000238 0.001431 -179.998642 68.896202 -179.995087 439.137939
[Rear_Leg02]
11 1162.777710 -0.029802 0.005960 14.838291 -8.923173 -150.408813 1162.777710
12 1162.777710 -0.029802 0.005960 12.921366 -8.004722 -164.901810 1162.777710
13 1162.777710 -0.029802 0.005960 10.858500 -6.417215 -177.880310 1162.777710
[Rear_Leg03]
11 607.192505 -0.013351 -0.073195 0.010006 -0.006003 78.278427 607.192505
12 607.192505 -0.013351 -0.073195 0.010018 -0.005983 78.044426 607.192505
13 607.192505 -0.013351 -0.073195 0.009998 -0.006016 78.427429 607.192505
[Rear_Leg04]
11 995.874512 -0.020504 -0.011921 -0.043709 -0.015946 94.071426 995.874573
12 995.874512 -0.020504 -0.011921 -0.043627 -0.016168 93.488808 995.874573
13 995.874512 -0.020504 -0.011921 -0.043744 -0.015848 94.327988 995.874573
[Rear_Foot]
11 3096.176270 -0.067472 -0.041425 -65.424141 70.915451 90.930138 3096.176270
12 3096.176270 -0.067472 -0.041425 -69.167809 73.749298 92.820763 3096.176270
13 3096.176270 -0.067472 -0.041425 -72.823441 76.942604 94.370087 3096.176270
[planeAlignerCenter]
11 11.120087 88.734932 -693.889282 0.001750 -0.001564 173.590332 699.628357
12 28.107077 126.400871 -650.114319 0.001825 -0.001477 167.968109 662.884460
13 31.595598 109.994278 -651.558350 0.001866 -0.001425 164.729218 661.532532
[Rear_Toe1_01]
11 0.653352 83.966492 -371.173737 -0.123642 21.510910 83.112000 380.553192
12 0.653352 83.966492 -371.173737 -0.234064 20.270872 77.072380 380.553192
13 0.653352 83.966492 -371.173737 -0.321012 19.776423 73.382309 380.553192
[Rear_Toe2_01]
11 178.200760 -294.826019 -362.060547 -0.436150 45.985992 -79.099457 499.765686
12 178.200760 -294.826019 -362.060547 -1.126871 42.473007 -86.332214 499.765686
13 178.200760 -294.826019 -362.060547 -1.929483 42.833458 -91.624191 499.765686
[Rear_Toe3_01]
11 -153.359680 -308.780914 -362.060852 -2.993903 45.924767 -122.772942 499.952881
12 -153.359680 -308.780914 -362.060852 -4.706314 42.291985 -132.578278 499.952881
13 -153.359680 -308.780914 -362.060852 -5.156788 42.607845 -137.122040 499.952881
[planeLockWeightCenter]
11 1000.000244 0.000405 -0.000121 -0.011814 -0.004373 -0.000015 1000.000244
12 1000.000244 0.000413 -0.000120 -0.011814 -0.004373 -0.000015 1000.000244
13 1000.000244 0.000421 -0.000119 -0.011814 -0.004373 -0.000015 1000.000244
[Rear_Toe1_02]
11 379.707825 0.194073 0.000477 0.001332 -33.593781 0.001332 379.707855
12 379.707825 0.194073 0.000477 0.001332 -33.562790 0.001332 379.707855
13 379.707825 0.194073 0.000477 0.001332 -33.531796 0.001332 379.707855
[Rear_Toe1_03]
11 500.129700 0.165701 0.000119 0.007252 71.373695 0.007252 500.129761
12 500.129700 0.165701 0.000119 -0.004545 65.941330 -0.000970 500.129761
13 500.129700 0.165701 0.000119 -0.004906 68.818275 -0.001348 500.129761
[Rear_Toe2_02]
11 340.494507 0.000238 -0.000954 0.001174 -85.755035 0.001174 340.494507
12 340.494507 0.000238 -0.000954 0.001174 -88.250458 0.001174 340.494507
13 340.494507 0.000238 -0.000954 0.001174 -86.928146 0.001174 340.494507
[Rear_Toe2_03]
11 433.103577 0.000000 0.000238 179.987473 79.259148 179.987473 433.103546
12 433.103577 0.000000 0.000238 -179.994522 72.161148 -179.998062 433.103546
13 433.103577 0.000000 0.000238 -179.993500 76.053078 -179.997025 433.103546
[Rear_Toe3_02]
11 340.494141 -0.000358 -0.000477 0.001174 -86.214882 0.001174 340.494171
12 340.494141 -0.000358 -0.000477 0.001174 -88.892876 0.001174 340.494171
13 340.494141 -0.000358 -0.000477 0.001174 -87.920105 0.001174 340.494171
[Rear_Toe3_03]
11 433.103577 0.001431 -0.000238 -179.996246 78.018929 -179.992737 433.103546
12 433.103577 0.001431 -0.000238 -179.998444 70.208832 -179.994888 433.103546
13 433.103577 0.001431 -0.000238 -179.997833 73.186440 -179.994293 433.103546
[Back_Bone]
11 1312.175781 -701.934692 0.000954 -1.700753 -3.550500 -81.080811 1488.125488
12 1312.175781 -701.934692 0.000954 -1.193589 -3.647466 -80.542175 1488.125488
13 1312.175781 -701.934692 0.000954 -0.512019 -3.647213 -80.337898 1488.125488
[Head]
11 1406.159424 809.709290 0.001431 -3.874018 0.655632 -0.416398 1622.625488
12 1406.159424 809.709290 0.001431 -3.723207 0.332094 -0.033869 1622.625488
13 1406.159424 809.709290 0.001431 -3.472824 0.020403 1.216778 1622.625488
[Motor_Bone]
11 1158.364380 -417.834747 0.000477 -1.845118 -0.485017 -106.470413 1231.419434
12 1158.364380 -417.834747 0.000477 -1.729657 -0.306488 -106.290817 1231.419434
13 1158.364380 -417.834747 0.000477 -1.440879 0.000172 -105.983208 1231.419434
[Ping_Mechanism]
11 1173.559448 -389.027863 22.165310 0.000103 -0.000053 82.120995 1236.557983
12 1180.355225 -395.001190 33.527771 0.000103 -0.000053 82.120995 1245.145996
13 1184.640503 -397.071198 43.929207 0.000103 -0.000053 82.120995 1250.187378
[BN_LookIK]
11 193.241119 1380.371704 -0.002861 0.000000 89.965736 -31.038179 1393.832153
12 193.241119 1380.371704 -0.002861 0.000000 89.965736 -31.038179 1393.832153
13 193.241119 1380.371704 -0.002861 0.000000 89.965736 -31.038179 1393.832153
[bottomMouth]
11 -435.092926 615.759399 -0.000954 -0.000022 0.000016 73.527184 753.966492
12 -435.092926 615.759399 -0.000954 -0.000022 0.000016 73.527184 753.966492
13 -435.092926 615.759399 -0.000954 -0.000022 0.000016 73.527184 753.966492
[L_Mouth01]
11 554.440979 7.658243 838.222046 150.204178 23.759130 109.605339 1005.027161
12 554.440979 7.658243 838.222046 150.204178 23.759130 109.605339 1005.027161
13 554.440979 7.658243 838.222046 150.204178 23.759130 109.605339 1005.027161
[L_mouthFront]
11 551.629089 934.514771 339.150421 0.000081 2.804060 79.119301 1136.941284
12 551.629089 934.514771 339.150421 0.000081 2.804060 79.119301 1136.941284
13 551.629089 934.514771 339.150421 0.000081 2.804060 79.119301 1136.941284
[mouthGun]
11 55.332661 1627.420898 0.000000 0.000023 0.000009 -11.038128 1628.361328
12 55.332661 1627.420898 0.000000 0.000023 0.000009 -11.038128 1628.361328
13 55.332661 1627.420898 0.000000 0.000023 0.000009 -11.038128 1628.361328
[R_Mouth01]
11 554.442383 7.659197 -838.223938 29.795891 -23.759109 109.605331 1005.029541
12 554.442383 7.659197 -838.223938 29.795891 -23.759109 109.605331 1005.029541
13 554.442383 7.659197 -838.223938 29.795891 -23.759109 109.605331 1005.029541
[R_mouthFront]
11 551.629089 934.514282 -339.151367 0.000029 -2.803930 79.119133 1136.941162
12 551.629089 934.514282 -339.151367 0.000029 -2.803930 79.119133 1136.941162
13 551.629089 934.514282 -339.151367 0.000029 -2.803930 79.119133 1136.941162
[TopMouth]
11 461.269867 -56.106091 -0.008583 -0.000059 -0.000268 92.025169 464.669525
12 461.269867 -56.106091 -0.008583 -0.000059 -0.000268 92.025169 464.669525
13 461.269867 -56.106091 -0.008583 -0.000059 -0.000268 92.025169 464.669525
[weapon_bone]
11 -987.239868 1448.372803 0.001431 0.000000 89.965736 -31.038221 1752.833740
12 -987.239868 1448.372803 0.001431 0.000000 89.965736 -31.038221 1752.833740
13 -987.239868 1448.372803 0.001431 0.000000 89.965736 -31.038221 1752.833740
